<svg xmlns="http://www.w3.org/2000/svg" xmlns:xlink="http://www.w3.org/1999/xlink" version="1.1" width="256" height="256" viewBox="0 0 256 256" xml:space="preserve">

<defs>
</defs>
<g style="stroke: none; stroke-width: 0; stroke-dasharray: none; stroke-linecap: butt; stroke-linejoin: miter; stroke-miterlimit: 10; fill: none; fill-rule: nonzero; opacity: 1;" transform="translate(1.4065934065934016 1.4065934065934016) scale(2.81 2.81)" >
	<path d="M 33.898 90 c -6.418 0 -12.469 -2.046 -17.499 -5.918 c -0.934 -0.719 -1.838 -1.508 -2.688 -2.347 c -5.868 -5.801 -8.821 -13.523 -8.314 -21.746 c 0.383 -6.212 2.888 -12.201 7.051 -16.865 c 5.523 -6.187 13.141 -9.593 21.45 -9.593 c 1.426 0 2.869 0.107 4.29 0.317 c 0.491 0.073 0.854 0.494 0.854 0.989 v 14.589 c 0 0.321 -0.154 0.622 -0.414 0.811 c -0.261 0.188 -0.596 0.24 -0.899 0.139 c -1.223 -0.403 -2.497 -0.608 -3.787 -0.608 c -3.255 0 -6.304 1.275 -8.585 3.591 c -2.271 2.306 -3.496 5.356 -3.447 8.591 c 0.062 4.172 2.256 7.953 5.87 10.114 c 1.665 0.996 3.564 1.579 5.491 1.686 c 1.518 0.079 3.017 -0.117 4.458 -0.592 c 4.933 -1.63 8.248 -6.207 8.248 -11.39 L 45.993 1 c 0 -0.552 0.447 -1 1 -1 h 14.368 c 0.549 0 0.995 0.442 1 0.99 c 0.013 1.346 0.15 2.683 0.407 3.973 c 1.017 5.103 3.876 9.646 8.052 12.795 c 3.699 2.79 8.109 4.268 12.757 4.276 c 0.083 -0.006 0.172 -0.003 0.259 0.013 c 0.476 0.086 0.821 0.5 0.821 0.983 v 14.305 c 0 0.558 -0.444 1.041 -1.015 1 c -5.048 0 -9.953 -0.99 -14.582 -2.943 c -2.35 -0.992 -4.588 -2.219 -6.677 -3.658 l 0.069 30.142 c -0.032 7.506 -3.004 14.556 -8.367 19.857 c -4.356 4.306 -9.854 7.055 -15.898 7.95 C 36.773 89.894 35.33 90 33.898 90 z M 33.898 35.531 c -7.731 0 -14.819 3.17 -19.958 8.925 c -3.866 4.33 -6.191 9.89 -6.547 15.656 c -0.471 7.639 2.272 14.813 7.723 20.2 c 0.792 0.78 1.634 1.516 2.503 2.186 C 22.296 86.098 27.925 88 33.898 88 c 1.333 0 2.678 -0.099 3.997 -0.294 c 5.621 -0.833 10.734 -3.39 14.785 -7.394 c 4.982 -4.926 7.743 -11.474 7.773 -18.438 l -0.074 -32.108 c -0.001 -0.382 0.216 -0.73 0.558 -0.899 c 0.344 -0.168 0.751 -0.128 1.054 0.105 c 2.398 1.851 5.039 3.391 7.848 4.577 c 4.079 1.721 8.388 2.652 12.819 2.772 V 24.015 c -4.747 -0.19 -9.237 -1.792 -13.041 -4.66 c -4.568 -3.444 -7.697 -8.417 -8.809 -14.001 C 60.589 4.26 60.449 3.135 60.392 2 H 47.993 l -0.018 59.769 c 0 6.046 -3.866 11.387 -9.621 13.287 c -1.679 0.555 -3.424 0.789 -5.195 0.689 c -2.25 -0.123 -4.466 -0.803 -6.408 -1.965 c -4.213 -2.52 -6.771 -6.932 -6.844 -11.802 c -0.056 -3.773 1.372 -7.334 4.022 -10.023 c 2.66 -2.7 6.215 -4.188 10.01 -4.188 c 1.047 0 2.085 0.116 3.1 0.345 V 35.714 C 35.996 35.593 34.942 35.531 33.898 35.531 z" style="stroke: none; stroke-width: 1; stroke-dasharray: none; stroke-linecap: butt; stroke-linejoin: miter; stroke-miterlimit: 10; fill: rgb(255,255,255); fill-rule: nonzero; opacity: 1;" transform=" matrix(1 0 0 1 0 0) " stroke-linecap="round" />
</g>
</svg>